<svg width="158" height="157" viewBox="0 0 158 157" fill="none" xmlns="http://www.w3.org/2000/svg">
<path d="M131.551 136.622C130.321 148.063 120.723 156.687 109.221 156.687H48.7363C37.2298 156.687 27.6306 148.063 26.4053 136.622L17.6162 54.604H140.34L131.551 136.622ZM95.3457 0.000488281C96.4755 -0.0139804 97.5922 0.244714 98.6006 0.754395C99.6088 1.2641 100.479 2.01001 101.138 2.92822C101.796 3.84639 102.223 4.91039 102.382 6.02881C102.541 7.14719 102.426 8.28799 102.05 9.35303H122.748C131.367 9.35317 139.369 13.6383 144.148 20.8071L155.219 37.4126H156.371C156.907 37.4229 157.438 37.4958 157.956 37.6265H0C0.517836 37.4959 1.04949 37.4229 1.58496 37.4126H2.7373L13.8076 20.8071C18.5871 13.6383 26.5847 9.35309 35.208 9.35303H55.9053C55.529 8.28805 55.4155 7.1471 55.5742 6.02881C55.7331 4.91039 56.1603 3.84639 56.8184 2.92822C57.4766 2.01005 58.3472 1.26408 59.3555 0.754395C60.3638 0.244775 61.4807 -0.0139795 62.6104 0.000488281H95.3457Z" fill="#ff3838"/>
</svg>
